<svg xmlns="http://www.w3.org/2000/svg" version="1.1" xmlns:xlink="http://www.w3.org/1999/xlink" xmlns:svgjs="http://svgjs.dev/svgjs" width="308" height="304" viewBox="0 0 1000 1125"><g transform="matrix(1,0,0,1,1.7053025658242404e-13,0)"><svg viewBox="0 0 320 360" data-background-color="#ffffff" preserveAspectRatio="xMidYMid meet" height="1125" width="1000" xmlns="http://www.w3.org/2000/svg" xmlns:xlink="http://www.w3.org/1999/xlink"><g id="tight-bounds" transform="matrix(1,0,0,1,0,0)"><svg viewBox="0 0 320 360" height="360" width="320"><g><svg></svg></g><g><svg viewBox="0 0 320 360" height="360" width="320"><g><path xmlns="http://www.w3.org/2000/svg" d="M20.961 227.22l3.726 4.658-1.863-6.056c-0.466-2.795-3.726 0.466-1.863 1.398M25.153 224.425c1.397 2.329 2.795 4.658 2.795 6.987 0 3.261 2.795 4.658 5.123 5.589-3.261-3.726-5.124-13.974-7.918-12.576M204.017 26.929c7.918 0 15.371-0.932 23.756 0.931 20.495 5.124 37.729 15.371 49.374 29.811l32.606 52.169c1.397 13.042 4.192 27.482 3.726 43.319 3.261 0 2.795-4.658 6.521-5.59-3.726 9.316-5.59 20.961-6.521 34.469-2.329-7.453 0-18.632 0.466-24.687-3.261 5.124-5.124 1.397-5.124-0.932 0.466-3.726-1.397-3.261-2.795-4.658-5.124-4.658-8.384-9.782-12.11-17.7 2.329-6.055 2.795-14.905-4.658-19.563-2.329-1.397-5.124-3.726-6.521-7.453-1.863-5.124-5.124-11.179-4.193-19.097 0.466-2.329-6.987 5.124-11.179 1.863-18.166-12.576-36.332-27.016-58.224-39.127-11.645 0-20.029-4.192-24.221-9.316-3.726-4.658-0.932-10.713 4.658-11.179 3.261 0 6.987-0.932 9.782 0.932 0.466-1.863 2.329-4.192 4.657-4.192M157.904 16.215l0.932 0.466c4.658 0.932 6.987 7.453 12.11 5.124 0 3.261 0.466 6.521-0.466 8.85-1.397 3.726-5.59 3.726-8.85 3.726-31.208-1.863-49.374 11.179-68.471 22.358-5.124 3.261-10.713 5.59-14.906 9.782-20.029 18.632-41.921 35.866-47.045 70.335l-4.192 38.195c-0.466 4.192-5.124 8.384-4.192 13.508l3.26 22.824c-3.261-3.261-5.124 0.932-4.192 2.795 0.466 1.397 2.329 6.055 5.124 1.863 3.726 6.987 7.453 20.495 12.576 26.55 15.837 18.632 36.332 35.4 53.101 52.169 4.192-0.932 7.453-0.932 8.384-3.727 1.397 2.795-1.397 5.59-3.726 6.056 7.453 4.658 15.837 8.85 27.016 9.781 14.44 0.932 27.948 3.261 40.524 6.522 6.521-1.863 13.042-2.795 20.029-3.261 2.329 0 3.726-3.726 6.521-4.658l0.466-4.658c2.795 4.192 2.329-1.397 0.466-4.192 3.261 2.795 4.192 5.124 5.589 6.987 0-1.397 3.726-6.521 3.727-0.466l0.931-6.055c1.397-0.932 1.863 5.124 3.261 0.931 1.397-4.192 4.192-0.932 6.987-2.329-0.932 1.863-0.466 5.59 2.794 3.261l3.727-3.261c2.329 5.59 6.055 3.261 7.918 2.329 20.495-13.042 40.99-28.413 60.553-43.784l-0.466 6.055 2.329-7.453c2.329 2.329 4.192 0.466 5.124-0.931 2.795-4.658 6.521-9.316 12.577-13.508-7.453 20.029-16.303 35.866-27.482 48.908l-4.658 5.59c0 3.261-0.932 7.453-4.658 7.918-1.863 0.466-5.59-0.932-8.384 1.863-1.397 1.863 3.261 5.59-0.466 2.795-3.261-2.329-6.521 0-10.248 0.932-2.795 0.932 1.863 3.726 2.795 5.589 0.932 1.863 1.863 3.726 1.398 6.056l-5.124-5.59c-6.055 3.261-9.782 9.316-14.906 13.974-2.329 1.863-1.397 5.124-1.397 7.918-3.261 0-6.987-0.932-8.85 0.932-1.397 1.863-0.932 4.658-0.932 7.453-4.658-0.466-5.124-7.453-9.315-6.056-4.192 0.932-8.85 1.397-12.577 3.727 2.795 5.59-4.658 2.329-3.726 3.26-6.987-4.192-13.042-7.453-20.495-4.658-15.837-5.124-35.4-2.795-49.84-0.931 0-2.329 0.466-4.658-0.466-5.124-0.932 2.329-3.726 1.397-3.26 1.397-8.85-6.055-17.7-9.782-27.016-14.905-8.384 0.932-16.303-3.261-18.632-5.59-6.521-6.055-13.974-2.795-20.029-4.192-13.042-3.261-17.7-16.769-19.098-26.084-0.932-4.658-4.658-6.521-6.055-6.056-6.055-19.563-15.371-37.263-22.824-55.429-1.863-4.658-1.397-9.316-1.397-14.44 2.329 0.932 4.658 0.466 4.192-2.794-2.329-15.371-7.918-27.016-13.974-38.195 3.261-15.837 3.726-34.469 11.179-48.443 6.521-12.576 18.632-19.098 27.016-29.811 2.795-3.726 2.795-8.85 5.59-12.11 9.316-9.316 18.632-19.098 28.879-27.482 4.658-3.726 10.247 0 17.234-1.397 2.329-8.384 11.645-15.837 20.495-13.508 3.726 0.932 11.179-8.85 13.508-9.782 3.726-1.397 1.863 3.726 1.863 6.987 8.85-6.987 20.961-10.713 32.14-14.906" fill="#ed2647" fill-rule="nonzero" stroke="none" stroke-width="1" stroke-linecap="butt" stroke-linejoin="miter" stroke-miterlimit="10" stroke-dasharray="" stroke-dashoffset="0" font-family="none" font-weight="none" font-size="none" text-anchor="none" style="mix-blend-mode: normal" data-fill-palette-color="tertiary"></path></g><g transform="matrix(1,0,0,1,64,124.05652928068302)"><svg viewBox="0 0 192 111.88694143863395" height="111.88694143863395" width="192"><g><svg viewBox="0 0 192 111.88694143863395" height="111.88694143863395" width="192"><g><svg viewBox="0 0 192 111.88694143863395" height="111.88694143863395" width="192"><g transform="matrix(1,0,0,1,0,67.62653588900749)"><svg viewBox="0 0 192 44.26040554962647" height="44.26040554962647" width="192"><g><svg viewBox="0 0 192 44.26040554962647" height="44.26040554962647" width="192"><g><svg viewBox="0 0 192 44.26040554962647" height="44.26040554962647" width="192"><g transform="matrix(1,0,0,1,0,0)"><svg width="192" viewBox="3 -32.04999923706055 140.5399932861328 32.39999771118164" height="44.26040554962647" data-palette-color="#ed2647"><path d="M33.25-32.05L36.4 0 32.8 0 32.05-9.75 30.35-25.7 30-25.7 21.1-3.7 17.8-3.7 9.35-25.7 8.95-25.7 7.25-10.05 6.4 0 3 0 6.35-32.05 10.9-32.05 12.55-27.15 19.5-8.9 19.8-8.9 27.1-27.45 28.75-32.05 33.25-32.05ZM62.55-3.3L62.95-2.95 62.55-0.7Q61.1 0.15 59.7 0.3L59.7 0.3Q58.25 0.1 57.37-0.73 56.5-1.55 56.15-3.2L56.15-3.2 55.85-3.2Q52.85-0.5 49.65 0.3L49.65 0.3Q45.95 0.3 44.02-1.45 42.1-3.2 42.15-6.45L42.15-6.45 42.2-12.8 42.05-22.65 46.05-23 45.75-7.4Q45.75-5.35 46.72-4.2 47.7-3.05 49.6-3.05L49.6-3.05Q52.7-3.05 55.8-6.05L55.8-6.05 55.8-22.65 59.6-23 59.35-4.9Q59.35-3.85 59.67-3.43 60-3 60.8-3L60.8-3Q61.6-3 62.55-3.3L62.55-3.3ZM66.3-23L70.4-22.9 80.65-22.9 82.55-22.95 82.65-20.55 69.85-2.8 78.9-2.8 82.65-3.15 82.9-2.8 82.55 0.1 77.95 0 67.95 0 65.6 0.1 65.6-2.3 78.45-20.15 69.8-20.15 66.25-19.75 65.95-20.1 66.3-23ZM96.09-23.3Q99.34-23.3 101.22-21.7 103.09-20.1 103.09-17.3L103.09-17.3Q103.09-16.45 102.79-11.15L102.79-11.15Q102.49-5.85 102.49-4.95L102.49-4.95Q102.49-3.85 102.84-3.43 103.19-3 104.04-3L104.04-3Q104.79-3 105.74-3.3L105.74-3.3 106.14-2.95 105.74-0.7Q104.29 0.15 102.89 0.3L102.89 0.3Q101.34 0.15 100.42-0.8 99.49-1.75 99.44-3.4L99.44-3.4 99.09-3.4Q96.39-0.65 93.74 0.35L93.74 0.35Q90.39 0.35 88.52-1.33 86.64-3 86.64-5.9L86.64-5.9Q86.64-8.1 87.82-9.4 88.99-10.7 91.29-11.25L91.29-11.25 99.39-13.15 99.44-16.4Q99.44-18.35 98.42-19.4 97.39-20.45 95.49-20.45L95.49-20.45Q93.79-20.45 92.09-19.65 90.39-18.85 88.44-17.15L88.44-17.15 88.04-17.35 87.54-20.2Q91.69-23.3 96.09-23.3L96.09-23.3ZM99.34-10.6L92.09-8.85Q91.09-8.55 90.64-8.03 90.19-7.5 90.19-6.45L90.19-6.45Q90.19-4.8 91.12-3.88 92.04-2.95 93.59-2.95L93.59-2.95Q96.34-2.95 99.19-6.5L99.19-6.5 99.34-10.6ZM139.54 0L139.79-15.55Q139.84-17.6 138.84-18.75 137.84-19.9 135.89-19.9L135.89-19.9Q132.69-19.9 129.24-16.45L129.24-16.45 129.14-9.95 129.34 0 125.29 0 125.59-15.55Q125.64-17.6 124.64-18.75 123.64-19.9 121.69-19.9L121.69-19.9Q118.54-19.9 114.89-16.35L114.89-16.35 114.89-10.05 115.09 0 111.14 0 111.39-9.7 111.19-22.65 114.94-23 114.94-19.65 115.24-19.65Q118.34-22.4 121.59-23.2L121.59-23.2Q124.39-23.2 126.19-22.23 127.99-21.25 128.74-19.4L128.74-19.4 129.04-19.4Q132.19-22.25 135.79-23.2L135.79-23.2Q139.59-23.2 141.54-21.45 143.49-19.7 143.44-16.45L143.44-16.45 143.34-9.95 143.54 0 139.54 0Z" opacity="1" transform="matrix(1,0,0,1,0,0)" fill="#ed2647" class="undefined-text-0" data-fill-palette-color="primary" id="text-0"></path></svg></g></svg></g></svg></g></svg></g><g transform="matrix(1,0,0,1,46.23393149517045,0)"><svg viewBox="0 0 99.5321370096591 61.16788046958379" height="61.16788046958379" width="99.5321370096591"><g><svg xmlns="http://www.w3.org/2000/svg" data-name="Layer 1" viewBox="2.430551767349243 20.79190444946289 95.1390609741211 58.46809768676758" x="0" y="0" height="61.16788046958379" width="99.5321370096591" class="icon-icon-0" data-fill-palette-color="accent" id="icon-0"><path d="M62.78 23l32 55.42 1.3-2.26h-64l1.3 2.26L65.37 23a1.5 1.5 0 0 0-2.59-1.51L30.79 77a1.51 1.51 0 0 0 1.3 2.26h64A1.51 1.51 0 0 0 97.37 77l-32-55.42A1.5 1.5 0 0 0 62.78 23Z" fill="#ed2647" data-fill-palette-color="accent"></path><path d="M34.63 23l32 55.42 1.3-2.26h-64l1.3 2.26L37.22 23a1.5 1.5 0 0 0-2.59-1.51L2.63 77a1.51 1.51 0 0 0 1.3 2.26h64A1.51 1.51 0 0 0 69.21 77l-32-55.42A1.5 1.5 0 0 0 34.63 23Z" fill="#ed2647" data-fill-palette-color="accent"></path></svg></g></svg></g><g></g></svg></g></svg></g></svg></g></svg></g><defs></defs></svg><rect width="320" height="360" fill="none" stroke="none" visibility="hidden"></rect></g></svg></g></svg>